<?xml version="1.0" encoding="utf-8"?>
<!-- Generator: Adobe Illustrator 25.0.0, SVG Export Plug-In . SVG Version: 6.00 Build 0)  -->
<svg version="1.1" id="Layer_1" xmlns="http://www.w3.org/2000/svg" xmlns:xlink="http://www.w3.org/1999/xlink" x="0px" y="0px"
	 viewBox="0 0 2000 2000" style="enable-background:new 0 0 2000 2000;" xml:space="preserve">
<g>
	<rect x="586.62" y="116.61" width="32.95" height="197.94"/>
	<polygon points="669.51,232.96 710.03,232.96 710.03,201.33 669.51,201.33 669.51,149.29 710.82,149.29 710.82,116.61 
		637.34,116.61 637.34,314.54 669.51,314.54 	"/>
	<path d="M800.24,264.86h20.4l3.92,49.68h33.21l-19.09-197.94h-54.13l-20.4,197.94h32.16L800.24,264.86z M809.39,149.03h2.35
		l7.58,84.46h-17.78L809.39,149.03z"/>
	<polygon points="881.29,314.54 913.45,314.54 913.45,149.29 941.17,149.29 941.17,116.61 853.31,116.61 853.31,149.29 
		881.29,149.29 	"/>
	<polygon points="1030.33,232.96 1070.85,232.96 1070.85,201.33 1030.33,201.33 1030.33,149.29 1071.64,149.29 1071.64,116.61 
		998.16,116.61 998.16,314.54 1030.33,314.54 	"/>
	<rect x="1085.23" y="116.61" width="32.95" height="197.94"/>
	<path d="M1168.12,234.27h8.63c2.96,0,5.14,1.01,6.54,3.01c1.39,2.01,2.61,6.58,3.66,13.73c1.05,7.67,1.79,14.82,2.22,21.44
		c0.43,6.63,0.92,12.47,1.44,17.52c0.52,4.36,0.92,7.93,1.18,10.72c0.26,2.79,0.52,5.01,0.78,6.67c0.26,1.66,0.56,3.01,0.92,4.05
		c0.35,1.05,0.69,2.09,1.05,3.14h33.73v-1.05c-0.35-1.05-0.65-2.13-0.92-3.27c-0.26-1.13-0.52-2.52-0.79-4.18
		c-0.26-1.65-0.57-3.7-0.92-6.15c-0.35-2.44-0.7-5.58-1.05-9.41c-1.05-9.76-1.87-18.3-2.48-25.62c-0.61-7.32-1.61-14.73-3.01-22.23
		c-1.05-5.23-2.27-9.5-3.66-12.81c-1.4-3.31-3.4-5.92-6.01-7.84v-1.57c2.09-1.05,4.09-2.22,6.01-3.53c1.92-1.31,3.57-3.62,4.97-6.93
		c1.39-3.31,2.48-8.06,3.27-14.25c0.79-6.19,1.18-14.77,1.18-25.76c0-9.58-0.57-17.78-1.7-24.58c-1.14-6.8-3.1-12.33-5.88-16.6
		c-2.79-4.27-6.67-7.36-11.64-9.28c-4.97-1.92-11.2-2.88-18.7-2.88h-50.99v197.94h32.16V234.27z M1168.12,148.51h12.55
		c1.57,0,3.09,0.18,4.58,0.52c1.48,0.35,2.75,1.31,3.79,2.88c1.05,1.57,1.87,4.05,2.48,7.45c0.61,3.4,0.92,8.15,0.92,14.25
		c0,7.84-0.31,13.9-0.92,18.17c-0.61,4.27-1.48,7.41-2.62,9.41c-1.14,2.01-2.53,3.18-4.18,3.53c-1.66,0.35-3.53,0.52-5.62,0.52
		h-10.98V148.51z"/>
	<path d="M1237.02,196.88c0.78,3.49,1.87,6.28,3.27,8.37c1.39,2.09,3.14,4.1,5.23,6.01c2.44,2.27,5.4,4.45,8.89,6.54
		c3.48,2.09,7.06,4.1,10.72,6.01c3.66,1.92,7.19,3.92,10.59,6.01c3.4,2.09,6.23,4.27,8.5,6.54c1.22,1.4,2.22,2.61,3.01,3.66
		c0.78,1.05,1.39,2.31,1.83,3.79c0.43,1.48,0.69,3.31,0.79,5.49c0.09,2.18,0.13,5.1,0.13,8.76c0,6.28-0.22,11.2-0.65,14.77
		c-0.44,3.57-1.18,6.28-2.22,8.11c-1.04,1.83-2.44,3.01-4.18,3.53c-1.74,0.52-3.92,0.78-6.54,0.78c-2.44,0-4.49-0.3-6.14-0.92
		c-1.66-0.61-2.97-1.83-3.92-3.66c-0.96-1.83-1.66-4.4-2.09-7.71c-0.44-3.31-0.65-7.67-0.65-13.07c0-2.44,0-4.62,0-6.54
		c0-1.92,0.17-3.57,0.52-4.97h-26.93c-0.52,2.44-0.96,5.4-1.31,8.89c-0.35,3.49-0.52,7.32-0.52,11.5c0,10.29,0.74,18.61,2.22,24.97
		c1.48,6.37,3.88,11.33,7.19,14.9c3.31,3.58,7.49,6.01,12.55,7.32c5.05,1.31,11.24,1.96,18.56,1.96c8.37,0,15.34-0.78,20.92-2.35
		c5.58-1.57,10.07-4.53,13.47-8.89c3.4-4.36,5.84-10.41,7.32-18.17c1.48-7.75,2.22-17.74,2.22-29.94c0-8.89-0.22-16.08-0.65-21.57
		c-0.44-5.49-1.27-9.94-2.48-13.33c-1.22-3.4-2.84-6.15-4.84-8.24c-2.01-2.09-4.58-4.18-7.71-6.28c-2.09-1.39-4.67-2.92-7.71-4.58
		c-3.05-1.65-6.23-3.31-9.54-4.97c-3.31-1.65-6.45-3.4-9.41-5.23c-2.97-1.83-5.49-3.62-7.58-5.36c-1.4-1.22-2.44-2.31-3.14-3.27
		c-0.7-0.96-1.22-2.22-1.57-3.79c-0.35-1.57-0.57-3.57-0.65-6.01c-0.09-2.44-0.13-5.75-0.13-9.94c0-4.71,0.17-8.45,0.52-11.24
		c0.35-2.79,1-4.97,1.96-6.54c0.96-1.57,2.22-2.57,3.79-3.01c1.57-0.43,3.57-0.65,6.01-0.65c5.58,0,9.11,1.61,10.59,4.84
		c1.48,3.23,2.22,8.67,2.22,16.34c0,3.14-0.04,5.62-0.13,7.45c-0.09,1.83-0.22,3.44-0.39,4.84h26.67c0.69-2.44,1.18-5.27,1.44-8.5
		c0.26-3.22,0.39-7.62,0.39-13.2c0-8.02-0.57-14.77-1.7-20.26c-1.14-5.49-3.23-9.94-6.28-13.33c-3.05-3.4-7.23-5.84-12.55-7.32
		c-5.32-1.48-12.07-2.22-20.26-2.22c-7.84,0-14.43,0.74-19.74,2.22c-5.32,1.48-9.59,4.05-12.81,7.71
		c-3.23,3.66-5.54,8.59-6.93,14.77c-1.4,6.19-2.09,13.99-2.09,23.4c0,9.07,0.13,16.39,0.39,21.96
		C1235.71,188.87,1236.23,193.4,1237.02,196.88z"/>
	<polygon points="1353.5,314.54 1385.66,314.54 1385.66,149.29 1413.38,149.29 1413.38,116.61 1325.53,116.61 1325.53,149.29 
		1353.5,149.29 	"/>
	<path d="M599.82,434.93l32.16,117.4v79.23h34.52v-79.49l30.85-117.14v-1.31h-31.9c-3.14,13.95-5.71,25.1-7.71,33.47
		c-2.01,8.37-3.53,14.99-4.58,19.87c-1.05,4.88-1.79,8.5-2.22,10.85c-0.44,2.35-0.74,4.31-0.92,5.88h-2.35
		c-0.18-1.57-0.48-3.53-0.92-5.88c-0.44-2.35-1.18-5.97-2.22-10.85c-1.04-4.88-2.48-11.5-4.31-19.87
		c-1.83-8.37-4.31-19.52-7.45-33.47h-32.95V434.93z"/>
	<path d="M703.89,456.37c-1.05,3.49-1.92,8.28-2.61,14.38c-0.7,6.1-1.18,14.03-1.44,23.79c-0.26,9.76-0.39,22.4-0.39,37.91
		c0,15.52,0.13,28.2,0.39,38.04c0.26,9.85,0.74,17.83,1.44,23.92c0.69,6.1,1.57,10.94,2.61,14.51c1.05,3.58,2.26,6.84,3.66,9.81
		c2.79,6.1,7.02,10.33,12.68,12.68c5.66,2.35,13.9,3.53,24.71,3.53c10.63,0,18.74-1.18,24.32-3.53c5.58-2.35,9.85-6.58,12.81-12.68
		c1.39-2.96,2.62-6.23,3.66-9.81c1.04-3.57,1.87-8.41,2.48-14.51c0.61-6.1,1.09-14.07,1.44-23.92c0.35-9.85,0.52-22.53,0.52-38.04
		c0-15.51-0.18-28.15-0.52-37.91c-0.35-9.76-0.83-17.69-1.44-23.79c-0.61-6.1-1.44-10.89-2.48-14.38c-1.05-3.48-2.27-6.8-3.66-9.94
		c-2.97-6.1-7.24-10.33-12.81-12.68c-5.58-2.35-13.69-3.53-24.32-3.53c-10.98,0-19.22,1.18-24.71,3.53
		c-5.49,2.35-9.72,6.58-12.68,12.68C706.15,449.57,704.93,452.88,703.89,456.37z M731.47,501.86c0.09-7.49,0.26-13.42,0.52-17.78
		c0.26-4.36,0.56-7.58,0.92-9.67c0.35-2.09,0.78-4.01,1.31-5.75c0.69-2.44,1.79-4.14,3.27-5.1c1.48-0.96,3.96-1.44,7.45-1.44
		c3.31,0,5.75,0.52,7.32,1.57c1.57,1.05,2.7,2.79,3.4,5.23c0.52,1.57,0.92,3.44,1.18,5.62c0.26,2.18,0.52,5.41,0.79,9.67
		c0.26,4.27,0.43,10.16,0.52,17.65c0.09,7.5,0.13,17.43,0.13,29.81c0,12.2-0.04,21.96-0.13,29.29c-0.09,7.32-0.22,13.16-0.39,17.52
		c-0.18,4.36-0.44,7.63-0.78,9.81c-0.35,2.18-0.78,4.14-1.31,5.88c-0.7,2.44-1.83,4.14-3.4,5.1c-1.57,0.96-4.01,1.44-7.32,1.44
		c-3.49,0-5.97-0.48-7.45-1.44c-1.48-0.96-2.57-2.65-3.27-5.1c-0.52-1.74-0.96-3.7-1.31-5.88c-0.35-2.18-0.65-5.4-0.92-9.67
		c-0.26-4.27-0.44-10.11-0.52-17.52c-0.09-7.41-0.13-17.21-0.13-29.42C731.34,519.3,731.38,509.36,731.47,501.86z"/>
	<path d="M873.71,631.95c5.66-2,9.98-5.71,12.94-11.11c1.22-2.26,2.31-4.62,3.27-7.06c0.96-2.44,1.7-5.4,2.22-8.89
		c0.52-3.49,0.92-7.71,1.18-12.68c0.26-4.97,0.48-11.11,0.65-18.43V433.62h-31.9v140.15c0,3.84-0.04,6.97-0.13,9.41
		c-0.09,2.44-0.18,4.54-0.26,6.27c-0.09,1.75-0.26,3.14-0.52,4.18s-0.65,2.01-1.18,2.88c-0.87,1.75-2.01,2.88-3.4,3.4
		c-1.4,0.52-3.84,0.78-7.32,0.78c-3.49,0-5.97-0.35-7.45-1.05c-1.48-0.69-2.66-1.83-3.53-3.4c-0.52-0.87-0.92-1.83-1.18-2.88
		c-0.26-1.05-0.44-2.39-0.52-4.05c-0.09-1.65-0.18-3.7-0.26-6.15c-0.09-2.44-0.13-5.58-0.13-9.41V433.62h-32.95v140.15
		c0,7.32,0.13,13.47,0.39,18.43c0.26,4.97,0.69,9.2,1.31,12.68c0.61,3.49,1.35,6.45,2.22,8.89c0.87,2.44,2,4.8,3.4,7.06
		c2.96,5.41,7.32,9.11,13.07,11.11c5.75,2,14.12,3.01,25.1,3.01S868.05,633.95,873.71,631.95z"/>
	<path d="M1015.82,630.77c4.01-0.52,7.49-1.35,10.46-2.48c2.96-1.13,5.49-2.7,7.58-4.71c2.09-2,3.83-4.49,5.23-7.45
		c1.39-2.79,2.62-5.88,3.66-9.28c1.05-3.4,1.87-8.06,2.48-13.99c0.61-5.92,1.09-13.64,1.44-23.14c0.35-9.5,0.52-21.92,0.52-37.26
		c0-14.99-0.13-27.19-0.39-36.61c-0.26-9.41-0.74-17.08-1.44-23.01c-0.7-5.92-1.53-10.59-2.48-13.99c-0.96-3.4-2.22-6.58-3.79-9.54
		c-2.97-5.75-7.23-9.81-12.81-12.16c-5.58-2.35-13.77-3.53-24.58-3.53h-46.8v197.94h46.8
		C1007.1,631.56,1011.81,631.29,1015.82,630.77z M987.06,597.56V466.3h13.86c3.31,0,5.75,0.44,7.32,1.31
		c1.57,0.87,2.79,2.44,3.66,4.71c0.52,1.57,0.96,3.44,1.31,5.62c0.35,2.18,0.61,5.36,0.78,9.54c0.17,4.18,0.3,9.81,0.39,16.86
		c0.09,7.06,0.13,16.26,0.13,27.59c0,11.5-0.04,20.79-0.13,27.85c-0.09,7.06-0.26,12.64-0.52,16.73c-0.26,4.1-0.52,7.19-0.78,9.28
		c-0.26,2.09-0.65,3.92-1.18,5.49c-0.87,2.44-2.05,4.1-3.53,4.97c-1.48,0.87-3.97,1.31-7.45,1.31H987.06z"/>
	<path d="M1063.67,456.37c-1.05,3.49-1.92,8.28-2.61,14.38c-0.7,6.1-1.18,14.03-1.44,23.79c-0.26,9.76-0.39,22.4-0.39,37.91
		c0,15.52,0.13,28.2,0.39,38.04c0.26,9.85,0.74,17.83,1.44,23.92c0.69,6.1,1.57,10.94,2.61,14.51c1.05,3.58,2.26,6.84,3.66,9.81
		c2.79,6.1,7.02,10.33,12.68,12.68c5.66,2.35,13.9,3.53,24.71,3.53c10.63,0,18.74-1.18,24.32-3.53c5.58-2.35,9.85-6.58,12.81-12.68
		c1.39-2.96,2.62-6.23,3.66-9.81c1.04-3.57,1.87-8.41,2.48-14.51c0.61-6.1,1.09-14.07,1.44-23.92c0.35-9.85,0.52-22.53,0.52-38.04
		c0-15.51-0.18-28.15-0.52-37.91c-0.35-9.76-0.83-17.69-1.44-23.79c-0.61-6.1-1.44-10.89-2.48-14.38c-1.05-3.48-2.27-6.8-3.66-9.94
		c-2.97-6.1-7.24-10.33-12.81-12.68c-5.58-2.35-13.69-3.53-24.32-3.53c-10.98,0-19.22,1.18-24.71,3.53
		c-5.49,2.35-9.72,6.58-12.68,12.68C1065.93,449.57,1064.71,452.88,1063.67,456.37z M1091.25,501.86
		c0.09-7.49,0.26-13.42,0.52-17.78c0.26-4.36,0.56-7.58,0.92-9.67c0.35-2.09,0.78-4.01,1.31-5.75c0.69-2.44,1.79-4.14,3.27-5.1
		c1.48-0.96,3.96-1.44,7.45-1.44c3.31,0,5.75,0.52,7.32,1.57c1.57,1.05,2.7,2.79,3.4,5.23c0.52,1.57,0.92,3.44,1.18,5.62
		c0.26,2.18,0.52,5.41,0.79,9.67c0.26,4.27,0.43,10.16,0.52,17.65c0.09,7.5,0.13,17.43,0.13,29.81c0,12.2-0.04,21.96-0.13,29.29
		c-0.09,7.32-0.22,13.16-0.39,17.52c-0.18,4.36-0.44,7.63-0.78,9.81c-0.35,2.18-0.78,4.14-1.31,5.88c-0.7,2.44-1.83,4.14-3.4,5.1
		c-1.57,0.96-4.01,1.44-7.32,1.44c-3.49,0-5.97-0.48-7.45-1.44c-1.48-0.96-2.57-2.65-3.27-5.1c-0.52-1.74-0.96-3.7-1.31-5.88
		c-0.35-2.18-0.65-5.4-0.92-9.67c-0.26-4.27-0.44-10.11-0.52-17.52c-0.09-7.41-0.13-17.21-0.13-29.42
		C1091.12,519.3,1091.16,509.36,1091.25,501.86z"/>
	<polygon points="1194.92,509.71 1238.85,631.56 1255.59,631.56 1255.59,433.62 1226.04,433.62 1226.04,518.08 1224.73,518.08 
		1197.8,433.62 1164.33,433.62 1164.33,631.56 1193.62,631.56 1193.62,509.71 	"/>
	<polygon points="1301.34,425.51 1271.27,425.51 1275.98,501.08 1296.64,501.08 	"/>
	<polygon points="1372.46,466.3 1400.18,466.3 1400.18,433.62 1312.32,433.62 1312.32,466.3 1340.3,466.3 1340.3,631.56 
		1372.46,631.56 	"/>
	<path d="M712.52,807.37h26.67c0.69-2.44,1.18-5.27,1.44-8.5c0.26-3.22,0.39-7.62,0.39-13.21c0-8.02-0.57-14.77-1.7-20.26
		c-1.14-5.49-3.23-9.94-6.28-13.33c-3.05-3.4-7.23-5.84-12.55-7.32c-5.32-1.48-12.07-2.22-20.26-2.22c-7.84,0-14.43,0.74-19.74,2.22
		c-5.32,1.48-9.59,4.05-12.81,7.71c-3.23,3.66-5.54,8.59-6.93,14.77c-1.4,6.19-2.09,13.99-2.09,23.4c0,9.07,0.13,16.39,0.39,21.96
		c0.26,5.58,0.78,10.11,1.57,13.6c0.78,3.49,1.87,6.28,3.27,8.37c1.39,2.09,3.14,4.1,5.23,6.01c2.44,2.27,5.4,4.44,8.89,6.54
		c3.48,2.09,7.06,4.1,10.72,6.01c3.66,1.92,7.19,3.92,10.59,6.01c3.4,2.09,6.23,4.27,8.5,6.54c1.22,1.4,2.22,2.61,3.01,3.66
		c0.78,1.05,1.39,2.31,1.83,3.79c0.43,1.48,0.69,3.31,0.79,5.49c0.09,2.18,0.13,5.1,0.13,8.76c0,6.28-0.22,11.2-0.65,14.77
		c-0.44,3.58-1.18,6.28-2.22,8.11c-1.04,1.83-2.44,3.01-4.18,3.53c-1.75,0.52-3.92,0.78-6.54,0.78c-2.44,0-4.49-0.3-6.14-0.92
		c-1.66-0.61-2.97-1.83-3.92-3.66c-0.96-1.83-1.66-4.4-2.09-7.71c-0.44-3.31-0.65-7.67-0.65-13.07c0-2.44,0-4.62,0-6.54
		c0-1.92,0.17-3.57,0.52-4.97h-26.93c-0.52,2.44-0.96,5.41-1.31,8.89c-0.35,3.49-0.52,7.32-0.52,11.5c0,10.29,0.74,18.61,2.22,24.97
		c1.48,6.37,3.88,11.33,7.19,14.9c3.31,3.58,7.49,6.01,12.55,7.32c5.05,1.31,11.24,1.96,18.56,1.96c8.37,0,15.34-0.78,20.92-2.35
		c5.58-1.57,10.07-4.53,13.47-8.89c3.4-4.36,5.84-10.41,7.32-18.17c1.48-7.75,2.22-17.74,2.22-29.94c0-8.89-0.22-16.08-0.65-21.57
		c-0.44-5.49-1.27-9.94-2.48-13.33c-1.22-3.4-2.84-6.15-4.84-8.24c-2.01-2.09-4.58-4.18-7.71-6.27c-2.09-1.39-4.67-2.92-7.71-4.58
		c-3.05-1.65-6.23-3.31-9.54-4.97c-3.31-1.65-6.45-3.4-9.41-5.23c-2.97-1.83-5.49-3.62-7.58-5.36c-1.4-1.22-2.44-2.31-3.14-3.27
		c-0.7-0.96-1.22-2.22-1.57-3.79c-0.35-1.57-0.57-3.57-0.65-6.01c-0.09-2.44-0.13-5.75-0.13-9.94c0-4.71,0.17-8.45,0.52-11.24
		c0.35-2.79,1-4.97,1.96-6.54c0.96-1.57,2.22-2.57,3.79-3.01c1.57-0.43,3.57-0.65,6.01-0.65c5.58,0,9.11,1.61,10.59,4.84
		c1.48,3.23,2.22,8.67,2.22,16.34c0,3.14-0.04,5.62-0.13,7.45C712.82,804.36,712.69,805.98,712.52,807.37z"/>
	<path d="M839.59,933.14c1.22-2.26,2.31-4.62,3.27-7.06c0.96-2.44,1.7-5.4,2.22-8.89c0.52-3.49,0.92-7.71,1.18-12.68
		c0.26-4.97,0.48-11.11,0.65-18.43V745.92h-31.9v140.15c0,3.84-0.04,6.97-0.13,9.41c-0.09,2.44-0.18,4.54-0.26,6.27
		c-0.09,1.75-0.26,3.14-0.52,4.18c-0.26,1.05-0.65,2.01-1.18,2.88c-0.87,1.75-2.01,2.88-3.4,3.4c-1.4,0.52-3.84,0.78-7.32,0.78
		c-3.49,0-5.97-0.35-7.45-1.05c-1.48-0.69-2.66-1.83-3.53-3.4c-0.52-0.87-0.92-1.83-1.18-2.88c-0.26-1.05-0.44-2.39-0.52-4.05
		c-0.09-1.65-0.18-3.7-0.26-6.15c-0.09-2.44-0.13-5.58-0.13-9.41V745.92h-32.95v140.15c0,7.32,0.13,13.47,0.39,18.43
		c0.26,4.97,0.69,9.2,1.31,12.68c0.61,3.49,1.35,6.45,2.22,8.89c0.87,2.44,2,4.8,3.4,7.06c2.96,5.41,7.32,9.11,13.07,11.11
		c5.75,2,14.12,3.01,25.1,3.01c10.98,0,19.3-1,24.97-3.01C832.31,942.25,836.62,938.55,839.59,933.14z"/>
	<path d="M918.29,818.35h30.59c0.35-2.44,0.52-4.66,0.52-6.67c0-2,0-5.1,0-9.28c0-23.18-3.05-39.13-9.15-47.85
		c-2.79-4.18-6.8-7.23-12.03-9.15c-5.23-1.92-12.81-2.88-22.75-2.88c-10.98,0-19.18,1.18-24.58,3.53
		c-5.41,2.35-9.59,6.5-12.55,12.42c-1.22,2.44-2.35,5.14-3.4,8.11c-1.05,2.97-1.92,7.41-2.61,13.33c-0.7,5.93-1.27,13.86-1.7,23.79
		c-0.44,9.94-0.65,23.1-0.65,39.48c0,15.34,0.13,27.98,0.39,37.91c0.26,9.94,0.74,18.13,1.44,24.58c0.69,6.45,1.57,11.6,2.61,15.43
		c1.05,3.84,2.26,7.15,3.66,9.94c2.96,6.1,7.32,10.33,13.07,12.68c5.75,2.35,14.21,3.53,25.36,3.53c9.06,0,16.43-1.27,22.09-3.79
		c5.66-2.52,10.07-6.32,13.2-11.37c3.14-5.05,5.27-11.42,6.41-19.09c1.13-7.67,1.7-16.73,1.7-27.19c0-4.36-0.05-7.8-0.13-10.33
		c-0.09-2.53-0.31-5.01-0.65-7.45h-30.59c0.17,1.4,0.26,2.62,0.26,3.66c0,1.05,0,2.35,0,3.92c0,7.5-0.13,13.51-0.39,18.04
		c-0.26,4.54-0.83,8.54-1.7,12.03c-1.05,4.88-4.44,7.32-10.2,7.32c-4.01,0-6.8-0.48-8.37-1.44c-1.57-0.96-2.7-2.65-3.4-5.1
		c-0.52-1.74-0.96-3.79-1.31-6.15c-0.35-2.35-0.65-5.75-0.92-10.2c-0.26-4.44-0.44-10.41-0.52-17.91
		c-0.09-7.49-0.13-17.26-0.13-29.29c0-11.85,0.04-21.44,0.13-28.76c0.09-7.32,0.26-13.16,0.52-17.52c0.26-4.36,0.56-7.62,0.92-9.81
		c0.35-2.18,0.78-4.14,1.31-5.88c0.69-2.44,1.79-4.14,3.27-5.1c1.48-0.96,3.96-1.44,7.45-1.44c3.31,0,5.62,0.44,6.93,1.31
		c1.31,0.87,2.39,2.18,3.27,3.92c0.87,1.92,1.57,5.06,2.09,9.41c0.52,4.36,0.78,9.5,0.78,15.43c0,3.49,0,6.19,0,8.11
		C918.55,814.52,918.46,816.44,918.29,818.35z"/>
	<path d="M1021.05,818.35h30.59c0.35-2.44,0.52-4.66,0.52-6.67c0-2,0-5.1,0-9.28c0-23.18-3.05-39.13-9.15-47.85
		c-2.79-4.18-6.8-7.23-12.03-9.15c-5.23-1.92-12.81-2.88-22.75-2.88c-10.98,0-19.18,1.18-24.58,3.53c-5.4,2.35-9.59,6.5-12.55,12.42
		c-1.22,2.44-2.35,5.14-3.4,8.11c-1.05,2.97-1.92,7.41-2.61,13.33c-0.7,5.93-1.27,13.86-1.7,23.79c-0.44,9.94-0.65,23.1-0.65,39.48
		c0,15.34,0.13,27.98,0.39,37.91c0.26,9.94,0.74,18.13,1.44,24.58c0.69,6.45,1.57,11.6,2.61,15.43c1.05,3.84,2.26,7.15,3.66,9.94
		c2.96,6.1,7.32,10.33,13.07,12.68c5.75,2.35,14.21,3.53,25.36,3.53c9.06,0,16.43-1.27,22.09-3.79c5.66-2.52,10.07-6.32,13.21-11.37
		c3.14-5.05,5.27-11.42,6.41-19.09c1.13-7.67,1.7-16.73,1.7-27.19c0-4.36-0.04-7.8-0.13-10.33c-0.09-2.53-0.31-5.01-0.65-7.45
		h-30.59c0.17,1.4,0.26,2.62,0.26,3.66c0,1.05,0,2.35,0,3.92c0,7.5-0.13,13.51-0.39,18.04c-0.26,4.54-0.83,8.54-1.7,12.03
		c-1.04,4.88-4.44,7.32-10.2,7.32c-4.01,0-6.8-0.48-8.37-1.44c-1.57-0.96-2.7-2.65-3.4-5.1c-0.52-1.74-0.96-3.79-1.31-6.15
		c-0.35-2.35-0.65-5.75-0.92-10.2c-0.26-4.44-0.44-10.41-0.52-17.91c-0.09-7.49-0.13-17.26-0.13-29.29
		c0-11.85,0.04-21.44,0.13-28.76c0.09-7.32,0.26-13.16,0.52-17.52c0.26-4.36,0.56-7.62,0.92-9.81c0.35-2.18,0.78-4.14,1.31-5.88
		c0.69-2.44,1.79-4.14,3.27-5.1c1.48-0.96,3.96-1.44,7.45-1.44c3.31,0,5.62,0.44,6.93,1.31c1.31,0.87,2.39,2.18,3.27,3.92
		c0.87,1.92,1.57,5.06,2.09,9.41c0.52,4.36,0.79,9.5,0.79,15.43c0,3.49,0,6.19,0,8.11C1021.31,814.52,1021.22,816.44,1021.05,818.35
		z"/>
	<polygon points="1142.37,909.61 1100.27,909.61 1100.27,858.36 1141.85,858.36 1141.85,827.24 1100.27,827.24 1100.27,778.61 
		1142.63,778.61 1142.63,745.92 1068.11,745.92 1068.11,943.86 1142.37,943.86 	"/>
	<polygon points="1158.58,943.86 1232.84,943.86 1232.84,909.61 1190.74,909.61 1190.74,858.36 1232.31,858.36 1232.31,827.24 
		1190.74,827.24 1190.74,778.61 1233.1,778.61 1233.1,745.92 1158.58,745.92 	"/>
	<path d="M1309.97,943.08c4.01-0.52,7.49-1.35,10.46-2.48c2.96-1.13,5.49-2.7,7.58-4.71c2.09-2,3.83-4.49,5.23-7.45
		c1.39-2.79,2.61-5.88,3.66-9.28c1.05-3.4,1.87-8.06,2.48-13.99c0.61-5.92,1.09-13.64,1.44-23.14c0.35-9.5,0.52-21.92,0.52-37.26
		c0-14.99-0.13-27.19-0.39-36.61c-0.26-9.41-0.74-17.08-1.44-23.01c-0.7-5.92-1.53-10.59-2.48-13.99c-0.96-3.4-2.22-6.58-3.79-9.54
		c-2.97-5.75-7.24-9.81-12.81-12.16c-5.58-2.35-13.77-3.53-24.58-3.53h-46.8v197.94h46.8
		C1301.25,943.86,1305.96,943.6,1309.97,943.08z M1281.21,909.87V778.61h13.86c3.31,0,5.75,0.44,7.32,1.31
		c1.57,0.87,2.79,2.44,3.66,4.71c0.52,1.57,0.96,3.44,1.31,5.62c0.35,2.18,0.61,5.36,0.78,9.54c0.17,4.18,0.3,9.81,0.39,16.86
		c0.09,7.06,0.13,16.26,0.13,27.59c0,11.5-0.04,20.79-0.13,27.85c-0.09,7.06-0.26,12.64-0.52,16.73c-0.26,4.1-0.52,7.19-0.78,9.28
		s-0.65,3.92-1.18,5.49c-0.87,2.44-2.05,4.1-3.53,4.97c-1.48,0.87-3.97,1.31-7.45,1.31H1281.21z"/>
	<rect x="648.98" y="1062.94" width="32.95" height="197.94"/>
	<polygon points="754.35,1260.87 754.35,1095.62 782.07,1095.62 782.07,1062.94 694.21,1062.94 694.21,1095.62 722.19,1095.62 
		722.19,1260.87 	"/>
	<polygon points="795.14,1128.31 810.57,1128.31 826.26,1090.13 826.26,1054.83 793.83,1054.83 793.83,1088.56 804.55,1088.56 
		805.34,1090.65 795.14,1127 	"/>
	<path d="M915.02,1253.03c3.4-4.36,5.84-10.41,7.32-18.17c1.48-7.76,2.22-17.74,2.22-29.94c0-8.89-0.22-16.08-0.65-21.57
		c-0.44-5.49-1.27-9.94-2.48-13.33c-1.22-3.4-2.83-6.15-4.84-8.24c-2.01-2.09-4.58-4.18-7.71-6.27c-2.09-1.39-4.66-2.92-7.71-4.58
		c-3.05-1.65-6.23-3.31-9.54-4.97c-3.31-1.65-6.45-3.4-9.41-5.23c-2.97-1.83-5.49-3.62-7.58-5.36c-1.4-1.22-2.44-2.31-3.14-3.27
		c-0.7-0.96-1.22-2.22-1.57-3.79c-0.35-1.57-0.57-3.57-0.65-6.01c-0.09-2.44-0.13-5.75-0.13-9.94c0-4.71,0.17-8.45,0.52-11.24
		c0.35-2.79,1-4.97,1.96-6.54c0.96-1.57,2.22-2.57,3.79-3.01c1.57-0.43,3.57-0.65,6.01-0.65c5.58,0,9.11,1.61,10.59,4.84
		c1.48,3.23,2.22,8.67,2.22,16.34c0,3.14-0.04,5.62-0.13,7.45c-0.09,1.83-0.22,3.44-0.39,4.84h26.67c0.69-2.44,1.18-5.27,1.44-8.5
		c0.26-3.22,0.39-7.62,0.39-13.21c0-8.02-0.57-14.77-1.7-20.26c-1.14-5.49-3.23-9.94-6.27-13.33c-3.05-3.4-7.24-5.84-12.55-7.32
		c-5.32-1.48-12.07-2.22-20.26-2.22c-7.84,0-14.43,0.74-19.74,2.22c-5.32,1.48-9.59,4.05-12.81,7.71
		c-3.23,3.66-5.54,8.59-6.93,14.77c-1.4,6.19-2.09,13.99-2.09,23.4c0,9.07,0.13,16.39,0.39,21.96c0.26,5.58,0.78,10.11,1.57,13.6
		c0.78,3.49,1.87,6.28,3.27,8.37c1.39,2.09,3.14,4.1,5.23,6.01c2.44,2.27,5.4,4.44,8.89,6.54c3.48,2.09,7.06,4.1,10.72,6.01
		c3.66,1.92,7.19,3.92,10.59,6.01c3.4,2.09,6.23,4.27,8.5,6.54c1.22,1.4,2.22,2.61,3.01,3.66s1.39,2.31,1.83,3.79
		c0.43,1.48,0.69,3.31,0.78,5.49c0.09,2.18,0.13,5.1,0.13,8.76c0,6.28-0.22,11.2-0.65,14.77c-0.44,3.58-1.18,6.28-2.22,8.11
		c-1.05,1.83-2.44,3.01-4.18,3.53c-1.74,0.52-3.92,0.78-6.54,0.78c-2.44,0-4.49-0.3-6.15-0.92c-1.66-0.61-2.97-1.83-3.92-3.66
		c-0.96-1.83-1.66-4.4-2.09-7.71c-0.44-3.31-0.65-7.67-0.65-13.07c0-2.44,0-4.62,0-6.54c0-1.92,0.17-3.57,0.52-4.97h-26.93
		c-0.52,2.44-0.96,5.41-1.31,8.89c-0.35,3.49-0.52,7.32-0.52,11.5c0,10.29,0.74,18.61,2.22,24.97c1.48,6.37,3.88,11.33,7.19,14.9
		c3.31,3.58,7.49,6.01,12.55,7.32c5.05,1.31,11.24,1.96,18.56,1.96c8.37,0,15.34-0.78,20.92-2.35
		C907.13,1260.35,911.62,1257.39,915.02,1253.03z"/>
	<path d="M1064.19,1248.06c1.39-2.96,2.62-6.23,3.66-9.81c1.04-3.57,1.87-8.41,2.48-14.51c0.61-6.1,1.09-14.07,1.44-23.92
		c0.35-9.85,0.52-22.53,0.52-38.04c0-15.51-0.18-28.15-0.52-37.91c-0.35-9.76-0.83-17.69-1.44-23.79
		c-0.61-6.1-1.44-10.89-2.48-14.38c-1.05-3.48-2.27-6.8-3.66-9.94c-2.97-6.1-7.24-10.33-12.81-12.68
		c-5.58-2.35-13.69-3.53-24.32-3.53c-10.98,0-19.22,1.18-24.71,3.53c-5.49,2.35-9.72,6.58-12.68,12.68
		c-1.4,3.14-2.61,6.45-3.66,9.94c-1.05,3.49-1.92,8.28-2.61,14.38c-0.7,6.1-1.18,14.03-1.44,23.79c-0.26,9.77-0.39,22.4-0.39,37.91
		c0,15.52,0.13,28.2,0.39,38.04c0.26,9.85,0.74,17.83,1.44,23.92c0.69,6.1,1.57,10.94,2.61,14.51c1.05,3.58,2.26,6.84,3.66,9.81
		c2.79,6.1,7.02,10.33,12.68,12.68c5.66,2.35,13.9,3.53,24.71,3.53c10.63,0,18.74-1.18,24.32-3.53
		C1056.95,1258.39,1061.22,1254.16,1064.19,1248.06z M1040.26,1190.27c-0.09,7.32-0.22,13.16-0.39,17.52
		c-0.18,4.36-0.44,7.63-0.78,9.81c-0.35,2.18-0.78,4.14-1.31,5.88c-0.7,2.44-1.83,4.14-3.4,5.1c-1.57,0.96-4.01,1.44-7.32,1.44
		c-3.49,0-5.97-0.48-7.45-1.44c-1.48-0.96-2.57-2.65-3.27-5.1c-0.52-1.74-0.96-3.7-1.31-5.88c-0.35-2.18-0.65-5.4-0.92-9.67
		c-0.26-4.27-0.44-10.11-0.52-17.52c-0.09-7.41-0.13-17.21-0.13-29.42c0-12.38,0.04-22.31,0.13-29.81
		c0.09-7.49,0.26-13.42,0.52-17.78c0.26-4.36,0.56-7.58,0.92-9.67c0.35-2.09,0.78-4.01,1.31-5.75c0.69-2.44,1.79-4.14,3.27-5.1
		c1.48-0.96,3.96-1.44,7.45-1.44c3.31,0,5.75,0.52,7.32,1.57c1.57,1.05,2.7,2.79,3.4,5.23c0.52,1.57,0.92,3.44,1.18,5.62
		c0.26,2.18,0.52,5.41,0.79,9.67c0.26,4.27,0.43,10.16,0.52,17.65c0.09,7.5,0.13,17.43,0.13,29.81
		C1040.39,1173.19,1040.35,1182.95,1040.26,1190.27z"/>
	<polygon points="1115.96,1139.03 1117.27,1139.03 1161.19,1260.87 1177.93,1260.87 1177.93,1062.94 1148.38,1062.94 
		1148.38,1147.39 1147.07,1147.39 1120.14,1062.94 1086.67,1062.94 1086.67,1260.87 1115.96,1260.87 	"/>
	<polygon points="1226.82,1062.94 1194.66,1062.94 1194.66,1260.87 1265.52,1260.87 1265.52,1226.62 1226.82,1226.62 	"/>
	<path d="M1311.41,1096.41c-2.01,8.37-3.53,14.99-4.58,19.87c-1.05,4.88-1.79,8.5-2.22,10.85c-0.44,2.35-0.74,4.31-0.92,5.88h-2.35
		c-0.18-1.57-0.48-3.53-0.92-5.88c-0.44-2.35-1.18-5.97-2.22-10.85c-1.05-4.88-2.48-11.5-4.31-19.87
		c-1.83-8.37-4.31-19.52-7.45-33.47h-32.95v1.31l32.16,117.4v79.23h34.51v-79.49l30.85-117.14v-1.31h-31.9
		C1315.98,1076.88,1313.41,1088.04,1311.41,1096.41z"/>
	<polygon points="478.76,1409.76 488.96,1373.41 488.96,1371.84 473.53,1371.84 457.85,1410.02 457.85,1445.32 490.27,1445.32 
		490.27,1411.59 479.55,1411.59 	"/>
	<polygon points="528.44,1409.76 538.64,1373.41 538.64,1371.84 523.21,1371.84 507.53,1410.02 507.53,1445.32 539.95,1445.32 
		539.95,1411.59 529.23,1411.59 	"/>
	<path d="M563.74,1379.95l-20.4,197.94h32.16l3.92-49.68h20.4l3.92,49.68h33.21l-19.09-197.94H563.74z M580.74,1496.83l7.84-84.46
		h2.35l7.58,84.46H580.74z"/>
	<polygon points="692.64,1577.88 692.64,1412.63 720.36,1412.63 720.36,1379.95 632.51,1379.95 632.51,1412.63 660.48,1412.63 
		660.48,1577.88 	"/>
	<polygon points="814.49,1379.95 726.63,1379.95 726.63,1412.63 754.61,1412.63 754.61,1577.88 786.77,1577.88 786.77,1412.63 
		814.49,1412.63 	"/>
	<polygon points="826.25,1577.88 900.51,1577.88 900.51,1543.63 858.41,1543.63 858.41,1492.38 899.99,1492.38 899.99,1461.27 
		858.41,1461.27 858.41,1412.63 900.77,1412.63 900.77,1379.95 826.25,1379.95 	"/>
	<path d="M1049.29,1577.88v-197.94h-47.33l-13.86,71.64c-1.22,6.45-2.22,11.86-3.01,16.21c-0.78,4.36-1.44,8.72-1.96,13.07h-1.57
		c-0.52-4.36-1.14-8.71-1.83-13.07c-0.7-4.36-1.66-9.76-2.88-16.21l-13.07-71.64H916.2v197.94h29.02v-136.75h1.31
		c0.35,3.49,0.87,7.06,1.57,10.72c0.69,3.66,1.39,7.15,2.09,10.46l25.36,115.57h14.64l24.84-115.31c0.87-3.48,1.65-7.06,2.35-10.72
		c0.69-3.66,1.22-7.23,1.57-10.72h1.31v136.75H1049.29z"/>
	<path d="M1146.94,1500.62c2.88-5.49,4.88-12.64,6.01-21.44c1.13-8.8,1.7-19.57,1.7-32.29c0-12.72-0.57-23.36-1.7-31.9
		c-1.14-8.54-3.14-15.43-6.01-20.66c-2.88-5.23-6.8-8.93-11.77-11.11c-4.97-2.18-11.2-3.27-18.7-3.27h-50.2v197.94h32.16v-61.71
		h18.04c7.49,0,13.73-1.22,18.7-3.66C1140.15,1510.08,1144.07,1506.11,1146.94,1500.62z M1121.58,1464.8
		c-0.44,4.97-1.14,8.89-2.09,11.77c-0.96,2.88-2.14,4.88-3.53,6.01c-1.4,1.14-3.05,1.7-4.97,1.7h-12.55v-71.91h11.77
		c2.09,0,3.88,0.44,5.36,1.31c1.48,0.87,2.7,2.53,3.66,4.97c0.96,2.44,1.7,5.88,2.22,10.33c0.52,4.44,0.78,10.16,0.78,17.13
		C1122.23,1453.6,1122.01,1459.83,1121.58,1464.8z"/>
	<polygon points="1223.16,1577.88 1223.16,1412.63 1250.88,1412.63 1250.88,1379.95 1163.02,1379.95 1163.02,1412.63 1191,1412.63 
		1191,1577.88 	"/>
	<polygon points="1337.16,1412.63 1337.16,1379.95 1262.64,1379.95 1262.64,1577.88 1336.9,1577.88 1336.9,1543.63 1294.8,1543.63 
		1294.8,1492.38 1336.38,1492.38 1336.38,1461.27 1294.8,1461.27 1294.8,1412.63 	"/>
	<path d="M1443.58,1419.17c-0.7-5.92-1.53-10.59-2.48-13.99c-0.96-3.4-2.22-6.58-3.79-9.54c-2.97-5.75-7.23-9.81-12.81-12.16
		c-5.58-2.35-13.77-3.53-24.58-3.53h-46.8v197.94h46.8c5.4,0,10.11-0.26,14.12-0.78c4.01-0.52,7.49-1.35,10.46-2.48
		c2.96-1.13,5.49-2.7,7.58-4.71c2.09-2,3.83-4.49,5.23-7.45c1.39-2.79,2.62-5.88,3.66-9.28c1.05-3.4,1.87-8.06,2.48-13.99
		c0.61-5.92,1.09-13.64,1.44-23.14c0.35-9.5,0.52-21.92,0.52-37.26c0-14.99-0.13-27.19-0.39-36.61
		C1444.76,1432.77,1444.27,1425.1,1443.58,1419.17z M1412.59,1506.11c-0.09,7.06-0.26,12.64-0.52,16.73
		c-0.26,4.1-0.52,7.19-0.78,9.28c-0.26,2.09-0.65,3.92-1.18,5.49c-0.87,2.44-2.05,4.1-3.53,4.97c-1.48,0.87-3.97,1.31-7.45,1.31
		h-13.86v-131.26h13.86c3.31,0,5.75,0.44,7.32,1.31c1.57,0.87,2.79,2.44,3.66,4.71c0.52,1.57,0.96,3.44,1.31,5.62
		c0.35,2.18,0.61,5.36,0.78,9.54c0.17,4.18,0.3,9.81,0.39,16.86c0.09,7.06,0.13,16.26,0.13,27.59
		C1412.73,1489.77,1412.68,1499.05,1412.59,1506.11z"/>
	<polygon points="1509.73,1405.57 1520.45,1405.57 1521.24,1407.66 1511.04,1444.01 1511.04,1445.32 1526.47,1445.32 
		1542.15,1407.14 1542.15,1371.84 1509.73,1371.84 	"/>
	<polygon points="1460.05,1405.57 1470.77,1405.57 1471.56,1407.66 1461.36,1444.01 1461.36,1445.32 1476.79,1445.32 
		1492.47,1407.14 1492.47,1371.84 1460.05,1371.84 	"/>
	<path d="M724.81,1757.1c-1.22,6.45-2.22,11.86-3.01,16.21c-0.78,4.36-1.44,8.72-1.96,13.07h-1.57c-0.52-4.36-1.14-8.71-1.83-13.07
		c-0.7-4.36-1.66-9.76-2.88-16.21l-13.07-71.64H652.9v197.94h29.02v-136.75h1.31c0.35,3.49,0.87,7.06,1.57,10.72
		c0.69,3.66,1.39,7.15,2.09,10.46l25.36,115.57h14.64l24.84-115.31c0.87-3.48,1.65-7.06,2.35-10.72c0.69-3.66,1.22-7.23,1.57-10.72
		h1.31v136.75h29.02v-197.94h-47.33L724.81,1757.1z"/>
	<path d="M860.25,1825.61c0,3.84-0.04,6.97-0.13,9.41c-0.09,2.44-0.18,4.54-0.26,6.27c-0.09,1.74-0.26,3.14-0.52,4.18
		c-0.26,1.05-0.65,2.01-1.18,2.88c-0.87,1.75-2.01,2.88-3.4,3.4c-1.4,0.52-3.84,0.78-7.32,0.78c-3.49,0-5.97-0.35-7.45-1.05
		c-1.48-0.69-2.66-1.83-3.53-3.4c-0.52-0.87-0.92-1.83-1.18-2.88s-0.44-2.39-0.52-4.05c-0.09-1.65-0.18-3.7-0.26-6.15
		c-0.09-2.44-0.13-5.58-0.13-9.41v-140.15h-32.95v140.15c0,7.32,0.13,13.47,0.39,18.43c0.26,4.97,0.69,9.2,1.31,12.68
		c0.61,3.49,1.35,6.45,2.22,8.89c0.87,2.44,2,4.8,3.4,7.06c2.96,5.41,7.32,9.11,13.07,11.11c5.75,2,14.12,3.01,25.1,3.01
		s19.3-1,24.97-3.01c5.66-2,9.98-5.71,12.94-11.11c1.22-2.26,2.31-4.62,3.27-7.06c0.96-2.44,1.7-5.4,2.22-8.89
		c0.52-3.49,0.92-7.71,1.18-12.68c0.26-4.97,0.48-11.11,0.65-18.43v-140.15h-31.9V1825.61z"/>
	<path d="M998.43,1874.89c-0.26-1.65-0.57-3.7-0.92-6.15c-0.35-2.44-0.7-5.58-1.05-9.41c-1.05-9.76-1.87-18.3-2.48-25.62
		c-0.61-7.32-1.61-14.73-3.01-22.23c-1.05-5.23-2.27-9.5-3.66-12.81c-1.4-3.31-3.4-5.92-6.01-7.84v-1.57
		c2.09-1.05,4.09-2.22,6.01-3.53c1.92-1.31,3.57-3.62,4.97-6.93c1.39-3.31,2.48-8.06,3.27-14.25c0.78-6.19,1.18-14.77,1.18-25.76
		c0-9.58-0.57-17.78-1.7-24.58c-1.14-6.8-3.1-12.33-5.88-16.6c-2.79-4.27-6.67-7.36-11.64-9.28c-4.97-1.92-11.2-2.88-18.69-2.88
		h-50.99v197.94h32.16v-80.27h8.63c2.96,0,5.14,1,6.54,3.01c1.39,2.01,2.61,6.58,3.66,13.73c1.05,7.67,1.79,14.82,2.22,21.44
		c0.43,6.63,0.92,12.47,1.44,17.52c0.52,4.36,0.92,7.93,1.18,10.72c0.26,2.79,0.52,5.01,0.78,6.67c0.26,1.66,0.56,3.01,0.92,4.05
		c0.35,1.05,0.69,2.09,1.05,3.14h33.73v-1.05c-0.35-1.05-0.65-2.13-0.92-3.27C998.96,1877.95,998.69,1876.55,998.43,1874.89z
		 M963.4,1760.63c-0.61,4.27-1.48,7.41-2.61,9.41c-1.14,2.01-2.53,3.18-4.18,3.53c-1.66,0.35-3.53,0.52-5.62,0.52h-10.98v-56.74
		h12.55c1.57,0,3.09,0.18,4.58,0.52c1.48,0.35,2.75,1.31,3.79,2.88c1.04,1.57,1.87,4.05,2.48,7.45c0.61,3.4,0.92,8.15,0.92,14.25
		C964.31,1750.3,964,1756.36,963.4,1760.63z"/>
	<path d="M1103.15,1724.68c-0.7-5.92-1.53-10.59-2.48-13.99c-0.96-3.4-2.22-6.58-3.79-9.54c-2.97-5.75-7.24-9.81-12.81-12.16
		c-5.58-2.35-13.77-3.53-24.58-3.53h-46.8v197.94h46.8c5.4,0,10.11-0.26,14.12-0.78c4.01-0.52,7.49-1.35,10.46-2.48
		c2.96-1.13,5.49-2.7,7.58-4.71c2.09-2,3.83-4.49,5.23-7.45c1.39-2.79,2.61-5.88,3.66-9.28c1.05-3.4,1.87-8.06,2.48-13.99
		c0.61-5.92,1.09-13.64,1.44-23.14c0.35-9.5,0.52-21.92,0.52-37.26c0-14.99-0.13-27.19-0.39-36.61
		C1104.33,1738.27,1103.84,1730.61,1103.15,1724.68z M1072.16,1811.62c-0.09,7.06-0.26,12.64-0.52,16.73
		c-0.26,4.1-0.52,7.19-0.78,9.28c-0.26,2.09-0.65,3.92-1.18,5.49c-0.87,2.44-2.05,4.1-3.53,4.97c-1.48,0.87-3.97,1.31-7.45,1.31
		h-13.86v-131.26h13.86c3.31,0,5.75,0.44,7.32,1.31c1.57,0.87,2.79,2.44,3.66,4.71c0.52,1.57,0.96,3.44,1.31,5.62
		c0.35,2.18,0.61,5.36,0.78,9.54c0.17,4.18,0.3,9.81,0.39,16.86c0.09,7.06,0.13,16.26,0.13,27.59
		C1072.3,1795.28,1072.25,1804.56,1072.16,1811.62z"/>
	<polygon points="1119.62,1883.39 1193.88,1883.39 1193.88,1849.14 1151.78,1849.14 1151.78,1797.89 1193.36,1797.89 
		1193.36,1766.77 1151.78,1766.77 1151.78,1718.14 1194.14,1718.14 1194.14,1685.46 1119.62,1685.46 	"/>
	<path d="M1300.69,1874.89c-0.26-1.65-0.57-3.7-0.92-6.15c-0.35-2.44-0.7-5.58-1.05-9.41c-1.05-9.76-1.87-18.3-2.48-25.62
		c-0.61-7.32-1.61-14.73-3.01-22.23c-1.05-5.23-2.27-9.5-3.66-12.81c-1.4-3.31-3.4-5.92-6.01-7.84v-1.57
		c2.09-1.05,4.09-2.22,6.01-3.53c1.92-1.31,3.57-3.62,4.97-6.93c1.39-3.31,2.48-8.06,3.27-14.25c0.79-6.19,1.18-14.77,1.18-25.76
		c0-9.58-0.57-17.78-1.7-24.58c-1.14-6.8-3.1-12.33-5.88-16.6c-2.79-4.27-6.67-7.36-11.64-9.28c-4.97-1.92-11.2-2.88-18.7-2.88
		h-50.99v197.94h32.16v-80.27h8.63c2.96,0,5.14,1,6.54,3.01c1.39,2.01,2.61,6.58,3.66,13.73c1.05,7.67,1.79,14.82,2.22,21.44
		c0.43,6.63,0.92,12.47,1.44,17.52c0.52,4.36,0.92,7.93,1.18,10.72c0.26,2.79,0.52,5.01,0.78,6.67c0.26,1.66,0.56,3.01,0.92,4.05
		c0.35,1.05,0.69,2.09,1.05,3.14h33.73v-1.05c-0.35-1.05-0.65-2.13-0.92-3.27C1301.21,1877.95,1300.95,1876.55,1300.69,1874.89z
		 M1265.65,1760.63c-0.61,4.27-1.48,7.41-2.62,9.41c-1.14,2.01-2.53,3.18-4.18,3.53c-1.66,0.35-3.53,0.52-5.62,0.52h-10.98v-56.74
		h12.55c1.57,0,3.09,0.18,4.58,0.52c1.48,0.35,2.75,1.31,3.79,2.88c1.05,1.57,1.87,4.05,2.48,7.45c0.61,3.4,0.92,8.15,0.92,14.25
		C1266.57,1750.3,1266.26,1756.36,1265.65,1760.63z"/>
	<rect x="1314.94" y="1847.31" width="32.16" height="36.08"/>
	<path d="M1814.29,816.89c-9.5-49.83-30.7-27.24-44.51,5.65c-1.8,7.5-14.5,22.79-4.36,27.4c1.65,0.9,2.67,1.95,2.38,3.94
		c0.39,24.78-17.29,41.9-20.66,65.41c-1.42,13.56-20.95,6.97-19.84,20.76c-7.06,5.37-21.8-13.78-29.98-16.84
		c-5.72-1.34-11.51-2.64-17.32,0.12c-12.46-1.2-21.2-16.39-38.88-11.73c-23.59,14.17-49.76,3.09-75.06,10.45
		c-15.25,9.07-9.97,35.81-17.14,51.38c4.59,8.78,5.71,7.69,4.11,18.95c3.9,4.63,8.47-11.66,6.74,10.15
		c1.28,7.03-5.59,12.62-4.99,18.55c3.95,3.56-0.63,4.44-3.64,5.48c-5.9,3.52,11.11,7.21,2.74,11.1c-3.64,3.78-6.84-1.69-10.83-0.37
		c-14.56,2.74,0.77,14.4-9.64,16.85c-2.77,0.43-4.58,1.47-5.66,4.03c-2.55,2.75-7.79-1.05-11.39,2.27
		c-13.6,5.69-13.94-14.46-22.72-12.73c-6.72,3.76-11.65-0.21-7.52,10.37c-3.18,11.45-8.78-18.23-9.58-21.34
		c0.27-5.8-8.96-2.39-6.45-9.02c0.3-2.07-0.39-3.51-1.97-4.7c-10.92-3.31-9.56-16.19-16.4-24.24c-13.84-12.76-46.1-25.46-57.45-3.23
		c-4.98,20.71,31.07,28.29,20.96,47.32c-2.67,10.16-15.46,22.36-10.81,32.36c10.34,1.77,16.95-30.02,21.23-1.23
		c-2.53,22.32,0.36,43.42,2.82,65.54c3.07,28.16,15.74,29.94,10.26-1.05c2.23-24.96-15.03-71.52,7.1-86.74
		c10.17,10.84,24.25,17.78,33.89,29.38c11.46,22.78,26.47,42.45,48.24,56.58c11.02,11.18,30.89,17.55,36.28,32.44
		c1.99,8.86,6.42,5.1,8.54-0.8c8.27,3.55,1.46,19.6,8.08,22.48c9.65-0.61,3.83-12.3,5.7-17.72c6.68,3.75,1.39,23.03,9.64,22.69
		c5.93-1.49,0.43,11.35,1.3,15.23c2.69,17.03,4.23,35.72,8.98,51.83c13.65-24.73-13.48-61.86,7.97-84.22
		c15.15-16.19,33.58-27.18,29.67,5.36c-1.16,29.52,2.67,58.84,2.99,88.24c-6.5,19.58,12.58,46.01,15.68,16.05
		c0.76-8.78-11.71-42.6-2.8-39c6.63-5.5-3.68-19.88-3.09-28.37c-0.65-13.49-11.42-77.54,12.25-67.22c-0.58,4.71-1.17,16.67,4.4,7.14
		c7.75-1.12,4.56,18.51,0.44,23.33c-5.07,14.93,4.28,7.09,4.38,11.3c0.69,11.4-11.71,58.99,7.59,52.67
		c21.92-13.79-11.64-59.8,7.19-82.38c5.09-4.84,23.56-13.58,27.36-7.46c-0.65,6.18-4.26,13.29-3.45,19.05
		c32.3-26.16,31.65-74.95,24.93,7.62c-0.47,9.07-1.04,35.95,13.51,27.11c5.63-25.01-1.96-50.56-0.6-75.8
		c-0.79-20.23,13.75-37.2,10.63-57.8c-4.08-18.71-0.35-37.7-3.11-56.15c-5.24-16.56,6.95-29.87,1.17-45.08
		c-5.14-7.28,0.52-15.74-2.94-22.65c-1.42-1.7-1.78-3.29,0.12-5.02c-0.03-10.22,0.94-23.44,12.94-28.82
		c5.35-4.16-2.16-9.72,1.61-13.4c4.82-11.85,12.66-1.76,15.28-15.91c4.41-13.82,3.07-30.61,12.66-42.07
		C1813.22,841.53,1816.5,829.86,1814.29,816.89z M1722.7,1016.86c-9.19,3.02-8.63,24.24-17.44,20.11c-5.49-5.12-9.25,3.97-13.9,4.25
		c-0.15-6.76,4.12-17.07-4.38-6.03c-6.95,6.37-11.11,18.05-20.09,21.17c-3.9,0.1-6.12,1.91-6.93,5.88
		c-10.31,20.15-0.24,18.17-0.88,32.42c-5.96,6.39-6.68,15.99-10.18,22.95c-12.81-10.21-3.58-28.21-6.88-41.12
		c-8.48,6.59-18.52,18.21-15.03-2.81c8.18-22.85-9.88-36.72-19.91-54.92c-19.7-21.18-0.41-3.56,12.93,2.24
		c6.97,3.27,25.56,1.09,27.35-6.03c-0.64-2.41-9.51-13.23-3.27-9.29c7.47,10.74,19.42,12.97,10.62-3.01
		c-5.72-8.81-14.45-15.15-19.63-24.38c-2.99-5.91-13.31-3.82-14.63-10.6c15.54,2.94,40.32,34.07,53.02,15.3
		c4.64-7.14,6.54-15.16,7-23.62c12.56-11.33,13.66,17.03,13.54,24.98c-0.53,8.47,9.87-6.23,8.42,4.7
		C1697.93,1024.58,1743.54,985.43,1722.7,1016.86z"/>
	<path d="M1629.77,825.49c5.68,4.83,14.35-0.78,21.02-1.09c7.51-5.11,5.6-20.43,7.75-29.24c-0.28-29,3.42-59.19-6.78-85.41
		c-0.33-10.82-15.06-15.06-23.52-11.07c-18.93,7.97-9.8,29.95-7.82,45.13C1628.39,770.17,1616.7,801.19,1629.77,825.49z"/>
	<path d="M1543.39,926.17c1.27-10.41-2.85-22.67,1.06-31.49c10.24,22.57,12.1,38.37,34.81,10.94c11.72-10.55,8.45-21.68,3.15-33.99
		c0.18-8.68-2.7-16.9-7.67-23.91c-7.74-10.82,3.92-23.83-4.13-34.85c-4.21-6.91-4.48-14.36-3.57-22
		c0.31-75.03-52.92-48.71-33.17,24.1C1534.3,825.88,1523.78,949.39,1543.39,926.17z"/>
	<path d="M1695.98,780.93c4.99,9.05-4.22,22.75,2.49,33.06c6.49,8.85,3.19,35.71,19.4,28.97c7.86-18.56,8.9-38.49,10.21-57.36
		c1.76-14.96,9.17-29.86,5.43-44.99c-2.67-30.37-28.14-30.76-40.94-6.51C1693.85,748.38,1686.76,770.17,1695.98,780.93z"/>
	<path d="M1649.07,836.97c-33.53-22.05-39.95,33.39-21.68,50.6c11.61,2.01,9.91-5.21,15.21-4.39c4.17,2.67,6.49,2.27,9.35-1.83
		C1660.26,868.66,1665.64,845.38,1649.07,836.97z"/>
	<path d="M1691.92,888.08c7.36-2.9,9.24,14.53,17.26,11.01c5.54-6.69,12.61-34.58,9.78-42.62
		C1694.27,837.33,1673.86,892.78,1691.92,888.08z"/>
	<path d="M554.2,1051.74c22.13,15.22,4.87,61.78,7.1,86.74c-5.49,30.99,7.19,29.21,10.26,1.05c2.45-22.11,5.35-43.22,2.82-65.54
		c4.27-28.79,10.89,3,21.23,1.23c4.65-10-8.14-22.2-10.81-32.36c-10.12-19.04,25.93-26.61,20.96-47.32
		c-11.34-22.23-43.6-9.53-57.45,3.23c-6.84,8.05-5.48,20.93-16.4,24.24c-1.58,1.2-2.27,2.63-1.97,4.7c2.52,6.63-6.72,3.21-6.45,9.02
		c-0.79,3.11-6.39,32.79-9.58,21.34c4.13-10.59-0.79-6.62-7.52-10.37c-8.78-1.73-9.12,18.42-22.72,12.73
		c-3.6-3.32-8.84,0.48-11.39-2.27c-1.09-2.57-2.89-3.6-5.66-4.03c-10.41-2.45,4.91-14.11-9.64-16.85
		c-3.99-1.32-7.19,4.15-10.83,0.37c-8.37-3.89,8.64-7.58,2.74-11.1c-3.01-1.04-7.59-1.92-3.64-5.48c0.6-5.93-6.27-11.52-4.99-18.55
		c-1.74-21.81,2.84-5.52,6.74-10.15c-1.6-11.26-0.48-10.16,4.11-18.95c-7.17-15.57-1.89-42.3-17.14-51.38
		c-25.31-7.36-51.48,3.72-75.06-10.45c-17.68-4.66-26.42,10.53-38.88,11.73c-5.81-2.76-11.6-1.45-17.32-0.12
		c-8.19,3.06-22.92,22.21-29.98,16.84c1.11-13.79-18.42-7.21-19.84-20.76c-3.38-23.51-21.05-40.63-20.67-65.41
		c-0.29-1.99,0.72-3.04,2.38-3.94c10.14-4.61-2.56-19.9-4.36-27.4c-13.8-32.89-35.01-55.48-44.51-5.65
		c-2.2,12.97,1.08,24.64,11.04,33.5c9.59,11.45,8.25,28.24,12.66,42.07c2.62,14.14,10.46,4.05,15.28,15.91
		c3.76,3.68-3.74,9.24,1.61,13.4c12,5.38,12.97,18.6,12.94,28.82c1.9,1.73,1.54,3.31,0.12,5.02c-3.46,6.92,2.2,15.37-2.94,22.65
		c-5.77,15.2,6.42,28.52,1.17,45.08c-2.76,18.45,0.97,37.44-3.11,56.15c-3.12,20.6,11.42,37.56,10.63,57.8
		c1.36,25.24-6.23,50.79-0.6,75.8c14.55,8.84,13.98-18.04,13.51-27.11c-6.72-82.57-7.37-33.78,24.93-7.62
		c0.81-5.76-2.8-12.87-3.45-19.05c3.8-6.11,22.28,2.62,27.36,7.46c18.84,22.59-14.72,68.59,7.19,82.38
		c19.3,6.31,6.9-41.27,7.59-52.67c0.1-4.2,9.45,3.63,4.38-11.3c-4.12-4.81-7.32-24.44,0.44-23.33c5.57,9.53,4.98-2.43,4.4-7.14
		c23.67-10.32,12.9,53.73,12.25,67.22c0.59,8.49-9.72,22.87-3.09,28.37c8.92-3.61-3.55,30.21-2.8,39
		c3.09,29.96,22.18,3.53,15.68-16.05c0.32-29.4,4.16-58.72,2.99-88.24c-3.92-32.55,14.52-21.56,29.67-5.36
		c21.46,22.36-5.67,59.48,7.97,84.22c4.75-16.1,6.29-34.79,8.98-51.83c0.86-3.88-4.63-16.72,1.3-15.23
		c8.25,0.34,2.96-18.94,9.64-22.69c1.87,5.42-3.95,17.11,5.7,17.72c6.62-2.88-0.19-18.93,8.08-22.48c2.12,5.89,6.55,9.66,8.54,0.8
		c5.4-14.9,25.27-21.26,36.28-32.44c21.77-14.13,36.78-33.8,48.24-56.58C529.95,1069.52,544.03,1062.58,554.2,1051.74z
		 M392.92,1018.76c-10.03,18.2-28.09,32.07-19.91,54.92c3.49,21.02-6.55,9.4-15.03,2.81c-3.3,12.9,5.93,30.91-6.88,41.12
		c-3.5-6.96-4.22-16.56-10.18-22.95c-0.65-14.26,9.42-12.27-0.88-32.42c-0.81-3.97-3.02-5.78-6.93-5.88
		c-8.98-3.12-13.14-14.8-20.09-21.17c-8.5-11.04-4.23-0.73-4.38,6.03c-4.65-0.28-8.41-9.36-13.9-4.25
		c-8.81,4.13-8.24-17.09-17.44-20.11c-20.84-31.43,24.78,7.72,20.26-27.8c-1.45-10.93,8.96,3.77,8.42-4.7
		c-0.11-7.94,0.98-36.31,13.54-24.98c0.45,8.46,2.35,16.48,7,23.62c12.7,18.78,37.48-12.36,53.02-15.3
		c-1.32,6.78-11.63,4.69-14.63,10.6c-5.18,9.22-13.91,15.57-19.63,24.38c-8.8,15.98,3.15,13.74,10.62,3.01
		c6.24-3.94-2.62,6.88-3.27,9.29c1.79,7.12,20.38,9.3,27.35,6.03C393.33,1015.21,412.62,997.58,392.92,1018.76z"/>
	<path d="M341.46,795.16c2.16,8.81,0.24,24.13,7.75,29.24c6.67,0.32,15.34,5.93,21.02,1.09c13.06-24.3,1.38-55.32,9.34-81.69
		c1.98-15.18,11.11-37.16-7.82-45.13c-8.45-3.99-23.19,0.25-23.51,11.07C338.04,735.96,341.74,766.16,341.46,795.16z"/>
	<path d="M420.74,905.62c22.7,27.43,24.57,11.63,34.81-10.94c3.91,8.81-0.2,21.07,1.06,31.49c19.6,23.22,9.09-100.29,9.52-111.2
		c19.74-72.82-33.48-99.13-33.17-24.1c0.91,7.64,0.64,15.09-3.57,22c-8.05,11.02,3.61,24.03-4.13,34.85
		c-4.97,7.02-7.85,15.24-7.67,23.91C412.29,883.93,409.02,895.07,420.74,905.62z"/>
	<path d="M282.13,842.97c16.21,6.74,12.91-20.12,19.4-28.97c6.72-10.31-2.5-24.01,2.49-33.06c9.22-10.76,2.13-32.56,3.4-46.84
		c-12.8-24.25-38.27-23.85-40.94,6.51c-3.74,15.13,3.67,30.04,5.43,44.99C273.23,804.48,274.27,824.4,282.13,842.97z"/>
	<path d="M357.4,883.17c5.3-0.81,3.6,6.41,15.21,4.39c18.27-17.21,11.85-72.65-21.68-50.6c-16.56,8.42-11.19,31.69-2.88,44.37
		C350.9,885.44,353.22,885.84,357.4,883.17z"/>
	<path d="M281.03,856.47c-2.83,8.04,4.24,35.92,9.78,42.62c8.03,3.52,9.91-13.91,17.26-11.01
		C326.14,892.78,305.73,837.33,281.03,856.47z"/>
</g>
</svg>
